<?xml version="1.0" standalone="no"?>
<!DOCTYPE svg PUBLIC "-//W3C//DTD SVG 20010904//EN"
 "http://www.w3.org/TR/2001/REC-SVG-20010904/DTD/svg10.dtd">
<svg version="1.0" xmlns="http://www.w3.org/2000/svg"
 width="1024.000000pt" height="1024.000000pt" viewBox="0 0 1024.000000 1024.000000"
 preserveAspectRatio="xMidYMid meet">

<g transform="translate(0.000000,1024.000000) scale(0.100000,-0.100000)"
fill="#000000" stroke="none">
<path d="M9400 10100 c0 -18 7 -20 60 -20 53 0 60 2 60 20 0 18 -7 20 -60 20
-53 0 -60 -2 -60 -20z"/>
<path d="M0 9640 l0 -440 40 0 40 0 0 40 0 40 120 0 120 0 0 240 c0 233 1 240
20 240 17 0 20 7 20 40 0 33 -3 40 -20 40 -17 0 -20 7 -20 40 l0 40 -40 0 -40
0 0 40 0 40 -80 0 -80 0 0 40 0 40 -40 0 -40 0 0 -440z"/>
<path d="M3400 10040 l0 -40 40 0 40 0 0 40 0 40 -40 0 -40 0 0 -40z"/>
<path d="M3320 9980 c0 -13 7 -20 20 -20 13 0 20 7 20 20 0 13 -7 20 -20 20
-13 0 -20 -7 -20 -20z"/>
<path d="M4960 9960 l0 -40 100 0 100 0 0 40 0 40 -100 0 -100 0 0 -40z"/>
<path d="M9040 9360 l0 -80 60 0 60 0 0 60 c0 53 -2 60 -20 60 -13 0 -20 7
-20 20 0 17 -7 20 -40 20 l-40 0 0 -80z"/>
<path d="M9560 9340 c0 -17 -7 -20 -40 -20 -33 0 -40 -3 -40 -20 0 -19 7 -20
140 -20 l140 0 0 40 0 40 -100 0 c-93 0 -100 -1 -100 -20z"/>
<path d="M6160 9220 c0 -13 7 -20 20 -20 13 0 20 7 20 20 0 13 -7 20 -20 20
-13 0 -20 -7 -20 -20z"/>
<path d="M0 8340 l0 -140 80 0 80 0 0 60 0 60 -40 0 -40 0 0 80 0 80 -40 0
-40 0 0 -140z"/>
<path d="M4338 7893 c7 -3 16 -2 19 1 4 3 -2 6 -13 5 -11 0 -14 -3 -6 -6z"/>
<path d="M4188 7853 c6 -2 18 -2 25 0 6 3 1 5 -13 5 -14 0 -19 -2 -12 -5z"/>
<path d="M4058 7813 c7 -3 16 -2 19 1 4 3 -2 6 -13 5 -11 0 -14 -3 -6 -6z"/>
<path d="M7878 7593 c7 -3 16 -2 19 1 4 3 -2 6 -13 5 -11 0 -14 -3 -6 -6z"/>
<path d="M8033 7583 c9 -2 23 -2 30 0 6 3 -1 5 -18 5 -16 0 -22 -2 -12 -5z"/>
<path d="M7858 7573 c7 -3 16 -2 19 1 4 3 -2 6 -13 5 -11 0 -14 -3 -6 -6z"/>
<path d="M8208 7573 c6 -2 18 -2 25 0 6 3 1 5 -13 5 -14 0 -19 -2 -12 -5z"/>
<path d="M8268 7573 c6 -2 18 -2 25 0 6 3 1 5 -13 5 -14 0 -19 -2 -12 -5z"/>
<path d="M8451 7576 c2 -2 20 -6 39 -10 25 -4 31 -3 20 4 -14 9 -69 15 -59 6z"/>
<path d="M7789 7543 c-13 -17 -13 -17 6 -3 11 8 22 16 24 17 2 2 0 3 -6 3 -6
0 -17 -8 -24 -17z"/>
<path d="M7760 7383 c0 -5 10 -18 23 -29 l22 -19 -20 25 c-11 14 -21 27 -22
29 -2 2 -3 0 -3 -6z"/>
<path d="M8080 7313 c35 -2 68 -9 73 -16 6 -8 7 -8 4 3 -3 11 -20 15 -73 16
l-69 1 65 -4z"/>
<path d="M7260 7088 c24 -27 45 -48 47 -48 8 0 0 9 -44 50 l-48 45 45 -47z"/>
<path d="M8152 7100 c0 -14 2 -19 5 -12 2 6 2 18 0 25 -3 6 -5 1 -5 -13z"/>
<path d="M4985 6992 c-114 -40 -205 -155 -205 -260 l0 -38 -75 -18 c-88 -21
-235 -90 -320 -151 -158 -113 -273 -284 -311 -464 -17 -80 -18 -296 -3 -412
28 -207 135 -390 292 -498 109 -74 279 -140 572 -221 231 -64 307 -94 363
-145 49 -44 72 -90 72 -144 0 -34 -7 -48 -42 -85 -131 -136 -476 -104 -593 54
-13 17 -34 61 -47 98 -26 76 -97 160 -162 195 -34 18 -57 22 -141 22 -89 0
-106 -3 -151 -27 -60 -32 -119 -94 -147 -157 -29 -63 -36 -261 -13 -381 51
-271 269 -485 586 -576 52 -14 98 -31 102 -37 3 -6 9 -30 13 -55 16 -104 78
-186 180 -236 181 -88 405 3 460 187 8 28 15 67 15 88 0 37 1 38 58 54 31 9
93 34 137 54 236 110 376 260 452 486 26 78 27 87 28 310 0 214 -2 235 -23
305 -47 150 -124 271 -238 371 -134 119 -224 157 -799 334 -148 46 -207 76
-240 126 -86 131 77 268 304 257 152 -7 257 -73 312 -195 73 -164 242 -245
414 -198 111 30 182 94 221 200 22 61 25 215 5 295 -57 235 -270 442 -549 536
l-96 32 -19 72 c-16 60 -28 81 -72 129 -29 31 -74 67 -101 80 -64 32 -169 38
-239 13z m158 -103 c40 -11 100 -58 119 -93 7 -11 15 -59 18 -106 l5 -84 107
-28 c242 -61 420 -184 516 -358 92 -167 77 -325 -39 -406 -38 -26 -50 -29
-125 -29 -75 0 -86 3 -126 30 -32 23 -52 48 -79 104 -45 93 -105 154 -194 196
-179 86 -352 87 -515 5 -81 -41 -124 -81 -156 -146 -50 -103 -19 -244 71 -321
63 -54 164 -97 370 -158 314 -93 406 -124 490 -166 158 -80 265 -182 334 -322
56 -113 71 -186 71 -342 0 -156 -15 -228 -72 -345 -34 -71 -57 -101 -137 -181
-83 -83 -110 -103 -199 -147 -95 -47 -163 -72 -279 -102 l-43 -11 0 -83 c0
-99 -19 -136 -89 -173 -83 -44 -192 -20 -248 54 -23 30 -28 49 -33 116 l-5 80
-70 14 c-349 71 -577 255 -664 537 -23 75 -27 177 -10 240 6 23 29 57 58 86
75 75 174 89 266 37 49 -28 77 -69 105 -152 81 -243 451 -367 724 -242 215 99
255 338 84 492 -79 71 -205 126 -458 199 -382 110 -444 139 -575 271 -148 147
-215 305 -215 505 0 191 55 331 182 465 126 133 259 211 430 250 40 10 87 20
103 24 30 7 30 8 35 92 3 46 10 93 17 104 20 36 70 76 109 90 48 17 68 18 117
4z"/>
<path d="M7420 6911 c0 -6 4 -13 10 -16 6 -3 7 1 4 9 -7 18 -14 21 -14 7z"/>
<path d="M7967 5232 c-11 -12 -17 -36 -17 -68 -1 -143 -55 -413 -126 -624
-118 -348 -266 -598 -529 -891 -402 -448 -956 -761 -1570 -888 -443 -91 -852
-89 -1292 4 -248 52 -584 175 -813 298 -429 229 -768 529 -1011 895 -221 333
-332 631 -405 1080 -13 86 -27 165 -30 175 -8 27 -43 21 -50 -9 -4 -14 -4
-238 -1 -497 6 -522 11 -578 73 -804 103 -376 296 -720 581 -1039 380 -423
942 -735 1583 -879 525 -117 1180 -92 1681 64 200 62 313 107 494 196 199 98
286 149 450 265 141 100 371 319 488 465 279 347 465 753 531 1160 21 127 34
1047 15 1088 -14 32 -29 34 -52 9z m-5625 -1126 c169 -345 508 -725 882 -990
50 -36 102 -76 115 -90 13 -14 28 -23 32 -20 5 3 9 0 9 -5 0 -6 7 -11 16 -11
9 0 12 -5 8 -12 -4 -7 -3 -8 5 -4 12 8 230 -106 242 -126 3 -5 9 -9 13 -9 27
4 35 -1 30 -16 -5 -14 -4 -15 4 -4 8 12 25 8 98 -23 142 -62 372 -142 474
-166 52 -12 101 -24 108 -26 9 -2 13 -40 14 -136 2 -113 3 -119 5 -40 3 84 6
92 23 92 14 0 20 7 20 24 0 20 4 23 21 19 18 -5 20 -12 17 -61 -2 -37 1 -57 9
-59 16 -6 26 37 21 81 -5 44 14 50 109 36 281 -41 668 -39 963 5 47 7 89 9 93
5 5 -4 25 -1 45 6 43 15 76 18 68 5 -3 -5 1 -11 9 -15 10 -4 15 1 15 14 0 15
13 23 58 35 183 50 456 146 602 212 46 21 277 150 314 176 16 11 36 20 43 20
7 0 13 4 13 8 0 5 26 27 58 50 107 79 337 276 430 370 186 186 364 431 497
685 l47 89 -7 -50 c-16 -129 -78 -329 -159 -520 -100 -234 -303 -537 -495
-739 -177 -185 -458 -385 -728 -516 -259 -126 -578 -237 -695 -243 -27 -1 -48
-6 -48 -11 0 -4 -13 -6 -29 -4 -17 2 -28 1 -25 -3 5 -8 -15 -13 -144 -34 -331
-52 -757 -43 -1039 22 -39 9 -70 20 -67 25 3 4 -8 5 -24 2 -62 -12 -464 113
-642 200 l-65 32 -6 90 c-3 49 -6 70 -7 47 -2 -38 -5 -43 -24 -42 -18 1 -19 2
-5 6 22 6 17 27 -6 31 -10 2 -17 -3 -17 -11 0 -8 -11 -18 -25 -21 -14 -4 -24
-11 -22 -17 1 -7 -2 -13 -8 -15 -14 -5 -150 80 -148 92 1 6 -8 10 -20 10 -12
-1 -21 4 -20 11 2 7 -3 10 -11 7 -7 -3 -25 11 -40 31 -16 20 -31 34 -34 31 -3
-4 3 -13 14 -22 53 -42 -50 21 -127 77 -217 161 -471 455 -634 733 -138 235
-253 552 -289 791 -5 36 -4 37 6 15 6 -14 33 -70 60 -124z m2085 -1522 c-3 -3
-12 -4 -19 -1 -8 3 -5 6 6 6 11 1 17 -2 13 -5z m-747 -132 c0 -14 -11 -21 -26
-15 -21 8 -17 23 6 23 11 0 20 -4 20 -8z"/>
<path d="M3680 2759 c0 -24 4 -38 10 -34 6 3 10 22 10 41 0 19 -4 34 -10 34
-5 0 -10 -18 -10 -41z"/>
<path d="M5738 2563 c7 -3 16 -2 19 1 4 3 -2 6 -13 5 -11 0 -14 -3 -6 -6z"/>
<path d="M4413 2360 c0 -25 2 -35 4 -22 2 12 2 32 0 45 -2 12 -4 2 -4 -23z"/>
<path d="M5672 2260 c0 -14 2 -19 5 -12 2 6 2 18 0 25 -3 6 -5 1 -5 -13z"/>
</g>
</svg>
